PathFileType	4	(X/Y/Z)	c:/Users/goper/Files/vsCode/490R/osim_files/C11/C11_Slow_01.trc
DataRate	CameraRate	NumFrames	NumMarkers	Units                	OrigDataRate	OrigDataStartFrame	OrigNumFrames
120.00	120.00	4	36	mm	120.0	869	1737
                Frame#	Time	LPSIS			LASIS			LTH1			LTH2			LTH3			LTH4			LLFE			LMFE			LSH1			LSH2			LSH3			LSH4			LLMAL			LMMAL			LCAL			LMTP5			LTOE			LMTP1			RPSIS			RASIS			RTH1			RTH2			RTH3			RTH4			RLFE			RMFE			RSH1			RSH2			RSH3			RSH4			RLMAL			RMMAL			RCAL			RMTP1			RTOE			RMTP5		
		X1	Y1	Z1	X2	Y2	Z2	X3	Y3	Z3	X4	Y4	Z4	X5	Y5	Z5	X6	Y6	Z6	X7	Y7	Z7	X8	Y8	Z8	X9	Y9	Z9	X10	Y10	Z10	X11	Y11	Z11	X12	Y12	Z12	X13	Y13	Z13	X14	Y14	Z14	X15	Y15	Z15	X16	Y16	Z16	X17	Y17	Z17	X18	Y18	Z18	X19	Y19	Z19	X20	Y20	Z20	X21	Y21	Z21	X22	Y22	Z22	X23	Y23	Z23	X24	Y24	Z24	X25	Y25	Z25	X26	Y26	Z26	X27	Y27	Z27	X28	Y28	Z28	X29	Y29	Z29	X30	Y30	Z30	X31	Y31	Z31	X32	Y32	Z32	X33	Y33	Z33	X34	Y34	Z34	X35	Y35	Z35	X36	Y36	Z36

869	7.23333	373.01331	975.00073	424.49283	195.06444	976.93414	486.73526	241.91469	575.88763	519.52039	230.82826	530.19281	516.79944	186.32616	582.72137	539.39343	182.92213	537.56714	533.09607	0.00000	0.00000	0.00000	205.67139	475.70496	528.55017	298.73184	451.23758	542.33728	334.86066	425.87210	545.48035	267.12518	398.70282	545.98328	307.97122	379.78391	547.88312	553.95770	267.92670	511.04575	525.09521	251.34525	418.05573	609.73315	305.75677	455.45752	559.22577	142.20656	535.31122	505.22989	91.32098	469.59512	537.17914	119.29601	423.79834	372.81161	994.67169	342.28867	209.32303	980.74268	257.31436	189.80278	623.90680	224.19373	173.24605	584.10309	232.96088	130.18491	641.96179	233.27267	123.28250	600.00885	240.20926	130.11215	511.40717	254.76955	156.21031	494.12009	363.99258	187.31911	400.22498	238.21175	183.41922	354.80164	242.37943	124.90609	398.99133	248.10963	129.48257	351.55371	249.56151	174.61807	97.21211	294.29041	146.22833	107.58852	390.27829	235.19702	61.43986	351.18991	19.20921	49.91845	367.38586	15.99639	64.27296	317.79367	58.95063	42.05943	257.50522
870	7.24167	365.03339	976.97491	423.83951	187.14098	979.11359	486.32040	225.74599	578.54956	519.47485	213.80359	533.02783	516.53040	170.22736	586.55432	539.46863	166.06589	541.28906	532.86237	0.00000	0.00000	0.00000	187.53981	479.60632	528.25659	280.08554	455.21677	541.62646	316.19232	429.71939	544.78394	248.18925	402.89087	545.71777	289.04208	383.81039	547.62152	534.31104	270.06424	511.01956	505.25302	252.79054	418.24789	591.12122	305.62033	455.03445	536.25940	144.72461	537.40918	481.19119	94.25652	472.33704	513.57684	120.47909	426.12344	364.60004	996.44830	341.49146	200.98665	982.23438	256.85751	184.73790	624.69586	224.02113	168.59370	584.68066	232.82249	124.87396	642.05969	233.43340	118.42342	600.02802	240.36072	126.43997	511.35147	254.94611	153.36555	494.09021	364.19968	184.29303	400.38513	237.59128	180.73390	354.92981	241.76051	121.80217	398.81351	248.52113	126.94698	351.40109	249.78474	174.58832	97.26301	294.33701	146.23535	107.59538	390.38773	235.81989	62.17816	350.23596	19.22865	49.87436	367.41602	15.99265	64.26371	317.83304	58.93639	42.07816	257.52838
871	7.25000	357.05429	979.00635	423.21240	179.18716	981.50024	485.97742	209.84750	581.43250	519.76257	196.84299	536.10919	516.70502	154.33379	590.98737	539.60889	149.25424	545.54822	532.75018	0.00000	0.00000	0.00000	169.57768	483.91791	528.03815	261.73053	459.16409	540.75696	297.74356	433.42038	543.08514	229.43829	407.16052	545.55688	270.15063	387.75946	547.31293	514.16144	271.31497	510.84500	484.73666	253.22455	418.31873	571.94427	304.38065	454.35852	512.52643	146.47536	539.44812	456.38147	96.08682	475.09720	489.11206	120.90144	429.10233	356.41769	998.34839	340.78604	192.67819	983.86432	256.35809	179.69379	625.41370	223.96576	164.16209	585.25452	232.75352	119.88329	642.21808	233.62355	113.97319	600.09985	240.45822	123.13992	511.33713	255.02441	150.58385	494.14960	364.16681	181.65080	400.63925	237.21848	178.28357	355.12262	241.45740	119.51084	398.69519	248.58357	124.60838	351.27786	250.01279	174.55396	97.42139	294.39807	146.20703	107.68124	390.46469	235.81384	62.30685	350.25247	19.20553	49.93850	367.40088	16.00053	64.30650	317.84787	58.93335	42.14439	257.56543
872	7.25833	349.17471	981.14941	422.66611	171.48154	983.97510	485.73514	194.20728	585.45502	519.13916	180.27275	539.69507	517.03644	138.66801	595.55609	539.72949	132.74553	550.05145	532.87683	0.00000	0.00000	0.00000	151.96643	488.19037	527.91882	243.64330	462.85315	539.85883	279.32916	436.66122	542.29962	210.71411	411.31479	545.45630	251.14948	391.50656	547.13690	493.44910	271.50861	510.67383	463.51709	252.45413	418.47018	552.29279	301.95959	453.65677	488.28085	147.17094	541.25787	430.94278	97.18755	477.88828	464.59937	120.29612	431.48779	348.07193	1000.19501	340.01529	184.25261	985.50555	256.05832	175.19881	626.31708	223.87187	160.00522	585.82385	232.73318	115.12373	642.36060	233.71072	109.70205	600.08527	240.57271	119.96680	511.36444	255.14970	148.22902	494.37442	364.22940	179.43420	400.95438	237.15134	176.42607	355.44504	241.38211	117.55281	398.76343	248.68500	122.88770	351.33908	250.03209	174.52892	97.54979	294.47696	146.18773	107.78259	390.51080	235.92935	62.35452	350.44861	19.16063	50.02280	367.33615	16.02030	64.39443	317.82571	58.93524	42.23146	257.57214
